<svg width="16" height="16" viewBox="0 0 16 16" fill="none" xmlns="http://www.w3.org/2000/svg">
<path fill-rule="evenodd" clip-rule="evenodd" d="M8.00198 0C10.2085 0 12.209 0.895271 13.6588 2.34513C15.1047 3.79104 16 5.79153 16 8.00198C16 10.2085 15.1047 12.209 13.6588 13.6588C12.209 15.1047 10.2085 16 8.00198 16C5.79153 16 3.79104 15.1047 2.34513 13.6588C0.895271 12.209 0 10.2085 0 8.00198C0 5.79153 0.895271 3.79104 2.34513 2.34513C3.79104 0.895271 5.79153 0 8.00198 0ZM12.7754 3.22852C12.3001 2.7492 11.7534 2.34513 11.1552 2.02822C11.2503 2.1748 11.3414 2.32533 11.4286 2.48378C12.1377 3.76727 12.6011 5.47858 12.6843 7.37608H14.7244C14.5779 5.75984 13.8609 4.30998 12.7754 3.22852ZM12.7754 12.7754C13.8609 11.69 14.5779 10.2402 14.7244 8.62392H12.6843C12.6011 10.5214 12.1377 12.2327 11.4286 13.5162C11.3414 13.6747 11.2503 13.8292 11.1552 13.9718C11.7534 13.6549 12.3001 13.2508 12.7754 12.7754ZM3.22852 12.7754C3.70389 13.2508 4.2466 13.6549 4.84872 13.9718C4.75365 13.8292 4.66254 13.6747 4.57539 13.5162C3.8663 12.2327 3.40282 10.5214 3.31567 8.62392H1.27952C1.4261 10.2402 2.1431 11.69 3.22852 12.7754ZM3.22852 3.22852C2.1431 4.30998 1.4261 5.75984 1.27952 7.37608H3.31567C3.40282 5.47858 3.8663 3.76727 4.57539 2.48378C4.66254 2.32533 4.75365 2.1748 4.84872 2.02822C4.2466 2.34513 3.70389 2.7492 3.22852 3.22852ZM8.62392 1.36667V7.37608H11.4365C11.3533 5.69646 10.9492 4.1951 10.3352 3.08591C9.85987 2.22233 9.26962 1.61228 8.62392 1.36667ZM8.62392 8.62392V14.6333C9.26962 14.3877 9.85987 13.7777 10.3352 12.918C10.9492 11.8049 11.3533 10.3035 11.4365 8.62392H8.62392ZM7.37608 14.6333V8.62392H4.56747C4.64669 10.3035 5.05472 11.8049 5.66873 12.918C6.14409 13.7777 6.73434 14.3877 7.37608 14.6333ZM7.37608 7.37608V1.36667C6.73434 1.61228 6.14409 2.22233 5.66873 3.08591C5.05472 4.1951 4.64669 5.69646 4.56747 7.37608H7.37608Z" fill="#222222"/>
</svg>
